<svg width="15" height="15" viewBox="0 0 15 15" fill="none" xmlns="http://www.w3.org/2000/svg">
<path d="M14.713 11.5802L14.6847 0.684728L3.78927 0.656457C3.67575 0.641088 3.56026 0.650287 3.45061 0.683433C3.34096 0.716579 3.23971 0.772897 3.15372 0.848574C3.06773 0.924252 2.999 1.01752 2.95219 1.12207C2.90538 1.22662 2.88157 1.34 2.88239 1.45455C2.88321 1.5691 2.90863 1.68213 2.95693 1.786C3.00523 1.88987 3.07528 1.98215 3.16235 2.05659C3.24941 2.13103 3.35146 2.18589 3.46157 2.21747C3.57168 2.24905 3.68729 2.2566 3.80057 2.23961L11.9651 2.27353L1.1488 13.0898C0.998843 13.2398 0.914598 13.4432 0.914599 13.6552C0.914599 13.8673 0.998843 14.0707 1.1488 14.2207C1.29876 14.3706 1.50214 14.4549 1.71421 14.4549C1.92628 14.4549 2.12966 14.3706 2.27962 14.2207L13.0959 3.40435L13.1298 11.5689C13.1306 11.7811 13.2156 11.9843 13.3662 12.1338C13.5167 12.2833 13.7205 12.3669 13.9327 12.3661C14.1449 12.3654 14.3481 12.2804 14.4976 12.1298C14.6471 11.9792 14.7307 11.7754 14.73 11.5632L14.713 11.5802Z" fill="#46658D"/>
</svg>
